<svg xmlns="http://www.w3.org/2000/svg" xmlns:xlink="http://www.w3.org/1999/xlink" width="500" zoomAndPan="magnify" viewBox="0 0 375 149.999998" height="200" preserveAspectRatio="xMidYMid meet" version="1.2"><defs><clipPath id="5ab89876f8"><path d="M 0 17 L 115 17 L 115 132 L 0 132 Z M 0 17 "/></clipPath><clipPath id="94fa88b542"><path d="M 57.023438 17.25 L 114.050781 74.277344 L 57.023438 131.304688 L -0.00390625 74.277344 Z M 57.023438 17.25 "/></clipPath><clipPath id="e13634c00c"><path d="M 0 17 L 115 17 L 115 132 L 0 132 Z M 0 17 "/></clipPath><clipPath id="78863c8b0a"><path d="M 57.023438 17.25 L 114.023438 74.25 L 57.023438 131.246094 L 0.0273438 74.25 Z M 57.023438 17.25 "/></clipPath><clipPath id="b387b604eb"><path d="M 57.023438 17.25 L 114.023438 74.25 L 57.023438 131.246094 L 0.0273438 74.25 Z M 57.023438 17.25 "/></clipPath><clipPath id="14e56be81b"><path d="M 28 17 L 143 17 L 143 132 L 28 132 Z M 28 17 "/></clipPath><clipPath id="9a51b92e1c"><path d="M 85.558594 17.25 L 142.585938 74.277344 L 85.558594 131.304688 L 28.53125 74.277344 Z M 85.558594 17.25 "/></clipPath><clipPath id="4a5dfb701f"><path d="M 28 17 L 143 17 L 143 132 L 28 132 Z M 28 17 "/></clipPath><clipPath id="8f84b8d583"><path d="M 85.558594 17.25 L 142.558594 74.25 L 85.558594 131.246094 L 28.5625 74.25 Z M 85.558594 17.25 "/></clipPath><clipPath id="fda48c86b9"><path d="M 85.558594 17.25 L 142.558594 74.25 L 85.558594 131.246094 L 28.5625 74.25 Z M 85.558594 17.25 "/></clipPath><clipPath id="f3b70872d7"><path d="M 0 74 L 58 74 L 58 132 L 0 132 Z M 0 74 "/></clipPath><clipPath id="6360e41479"><path d="M 28.53125 74.277344 L 57.042969 102.792969 L 28.53125 131.304688 L 0.015625 102.792969 Z M 28.53125 74.277344 "/></clipPath><clipPath id="fc1863b7cd"><path d="M 0 74 L 58 74 L 58 132 L 0 132 Z M 0 74 "/></clipPath><clipPath id="901d81fafb"><path d="M 28.53125 74.277344 L 57.03125 102.777344 L 28.53125 131.277344 L 0.03125 102.777344 Z M 28.53125 74.277344 "/></clipPath><clipPath id="0cb156848b"><path d="M 28.53125 74.277344 L 57.03125 102.777344 L 28.53125 131.277344 L 0.03125 102.777344 Z M 28.53125 74.277344 "/></clipPath><clipPath id="1535a81aeb"><path d="M 4 21 L 111 21 L 111 128 L 4 128 Z M 4 21 "/></clipPath><clipPath id="5e616c4da7"><path d="M 57.292969 21.402344 L 110.042969 74.152344 L 56.921875 127.277344 L 4.171875 74.527344 Z M 57.292969 21.402344 "/></clipPath><clipPath id="6bb6b98dd8"><path d="M 4 21 L 110 21 L 110 128 L 4 128 Z M 4 21 "/></clipPath><clipPath id="090ecc816a"><path d="M 57.292969 21.402344 L 109.992188 74.097656 L 56.757812 127.332031 L 4.058594 74.636719 Z M 57.292969 21.402344 "/></clipPath><clipPath id="60ed569706"><path d="M 57.296875 21.40625 L 109.988281 74.097656 L 56.921875 127.164062 L 4.230469 74.472656 Z M 57.296875 21.40625 "/></clipPath></defs><g id="9bf8ec3e37"><g clip-rule="nonzero" clip-path="url(#5ab89876f8)"><g clip-rule="nonzero" clip-path="url(#94fa88b542)"><path style=" stroke:none;fill-rule:nonzero;fill:#ffffff;fill-opacity:1;" d="M 57.023438 17.25 L 114.050781 74.277344 L 57.023438 131.304688 L -0.00390625 74.277344 Z M 57.023438 17.25 "/></g></g><g clip-rule="nonzero" clip-path="url(#e13634c00c)"><g clip-rule="nonzero" clip-path="url(#78863c8b0a)"><g clip-rule="nonzero" clip-path="url(#b387b604eb)"><path style="fill:none;stroke-width:7.890068;stroke-linecap:butt;stroke-linejoin:miter;stroke:#d9d9d9;stroke-opacity:1;stroke-miterlimit:4;" d="M -0.00203372 -0.00000518633 L 106.048146 -0.00000518633 L 106.044512 106.046541 L 0.00160013 106.046541 Z M -0.00203372 -0.00000518633 " transform="matrix(0.537481,0.537481,-0.537481,0.537481,57.024528,17.251096)"/></g></g></g><g clip-rule="nonzero" clip-path="url(#14e56be81b)"><g clip-rule="nonzero" clip-path="url(#9a51b92e1c)"><path style=" stroke:none;fill-rule:nonzero;fill:#ffffff;fill-opacity:1;" d="M 85.558594 17.25 L 142.585938 74.277344 L 85.558594 131.304688 L 28.53125 74.277344 Z M 85.558594 17.25 "/></g></g><g clip-rule="nonzero" clip-path="url(#4a5dfb701f)"><g clip-rule="nonzero" clip-path="url(#8f84b8d583)"><g clip-rule="nonzero" clip-path="url(#fda48c86b9)"><path style="fill:none;stroke-width:7.890068;stroke-linecap:butt;stroke-linejoin:miter;stroke:#d9d9d9;stroke-opacity:1;stroke-miterlimit:4;" d="M -0.00178114 -0.000257767 L 106.048399 -0.000257767 L 106.044765 106.046288 L 0.00185271 106.046288 Z M -0.00178114 -0.000257767 " transform="matrix(0.537481,0.537481,-0.537481,0.537481,85.559413,17.251096)"/></g></g></g><g clip-rule="nonzero" clip-path="url(#f3b70872d7)"><g clip-rule="nonzero" clip-path="url(#6360e41479)"><path style=" stroke:none;fill-rule:nonzero;fill:#ffffff;fill-opacity:1;" d="M 28.53125 74.277344 L 57.042969 102.792969 L 28.53125 131.304688 L 0.015625 102.792969 Z M 28.53125 74.277344 "/></g></g><g clip-rule="nonzero" clip-path="url(#fc1863b7cd)"><g clip-rule="nonzero" clip-path="url(#901d81fafb)"><g clip-rule="nonzero" clip-path="url(#0cb156848b)"><path style="fill:none;stroke-width:7.890068;stroke-linecap:butt;stroke-linejoin:miter;stroke:#d9d9d9;stroke-opacity:1;stroke-miterlimit:4;" d="M -0.00088081 -0.00209619 L 53.016397 -0.00209619 L 53.016397 53.015181 L -0.00088081 53.015181 Z M -0.00088081 -0.00209619 " transform="matrix(0.537561,0.537561,-0.537561,0.537561,28.530597,74.278944)"/></g></g></g><g style="fill:#ffffff;fill-opacity:1;"><g transform="translate(168.983578, 100.379659)"><path style="stroke:none" d="M 44.328125 -27.03125 C 47.296875 -26.082031 49.617188 -24.507812 51.296875 -22.3125 C 52.984375 -20.113281 53.828125 -17.40625 53.828125 -14.1875 C 53.828125 -9.625 52.054688 -6.117188 48.515625 -3.671875 C 44.984375 -1.222656 39.828125 0 33.046875 0 L 6.15625 0 L 6.15625 -51.96875 L 31.5625 -51.96875 C 37.894531 -51.96875 42.753906 -50.753906 46.140625 -48.328125 C 49.535156 -45.910156 51.234375 -42.625 51.234375 -38.46875 C 51.234375 -35.9375 50.625 -33.679688 49.40625 -31.703125 C 48.195312 -29.722656 46.503906 -28.164062 44.328125 -27.03125 Z M 18.109375 -42.921875 L 18.109375 -30.671875 L 30.078125 -30.671875 C 33.046875 -30.671875 35.296875 -31.1875 36.828125 -32.21875 C 38.359375 -33.257812 39.125 -34.796875 39.125 -36.828125 C 39.125 -38.859375 38.359375 -40.378906 36.828125 -41.390625 C 35.296875 -42.410156 33.046875 -42.921875 30.078125 -42.921875 Z M 32.15625 -9.0625 C 35.320312 -9.0625 37.707031 -9.578125 39.3125 -10.609375 C 40.925781 -11.648438 41.734375 -13.257812 41.734375 -15.4375 C 41.734375 -19.75 38.539062 -21.90625 32.15625 -21.90625 L 18.109375 -21.90625 L 18.109375 -9.0625 Z M 32.15625 -9.0625 "/></g></g><g style="fill:#ffffff;fill-opacity:1;"><g transform="translate(225.785152, 100.379659)"><path style="stroke:none" d="M 5.34375 -55.09375 L 16.921875 -55.09375 L 16.921875 0 L 5.34375 0 Z M 5.34375 -55.09375 "/></g></g><g style="fill:#ffffff;fill-opacity:1;"><g transform="translate(248.134535, 100.379659)"><path style="stroke:none" d="M 21.453125 -40.546875 C 27.640625 -40.546875 32.390625 -39.070312 35.703125 -36.125 C 39.023438 -33.175781 40.6875 -28.734375 40.6875 -22.796875 L 40.6875 0 L 29.84375 0 L 29.84375 -4.96875 C 27.664062 -1.257812 23.609375 0.59375 17.671875 0.59375 C 14.597656 0.59375 11.9375 0.0703125 9.6875 -0.96875 C 7.4375 -2.007812 5.71875 -3.441406 4.53125 -5.265625 C 3.34375 -7.097656 2.75 -9.179688 2.75 -11.515625 C 2.75 -15.222656 4.144531 -18.140625 6.9375 -20.265625 C 9.738281 -22.398438 14.0625 -23.46875 19.90625 -23.46875 L 29.109375 -23.46875 C 29.109375 -25.988281 28.335938 -27.925781 26.796875 -29.28125 C 25.265625 -30.644531 22.96875 -31.328125 19.90625 -31.328125 C 17.769531 -31.328125 15.675781 -30.992188 13.625 -30.328125 C 11.570312 -29.660156 9.828125 -28.757812 8.390625 -27.625 L 4.234375 -35.71875 C 6.410156 -37.25 9.019531 -38.4375 12.0625 -39.28125 C 15.101562 -40.125 18.234375 -40.546875 21.453125 -40.546875 Z M 20.5625 -7.203125 C 22.539062 -7.203125 24.296875 -7.660156 25.828125 -8.578125 C 27.367188 -9.492188 28.460938 -10.84375 29.109375 -12.625 L 29.109375 -16.703125 L 21.15625 -16.703125 C 16.40625 -16.703125 14.03125 -15.144531 14.03125 -12.03125 C 14.03125 -10.539062 14.609375 -9.363281 15.765625 -8.5 C 16.929688 -7.632812 18.53125 -7.203125 20.5625 -7.203125 Z M 20.5625 -7.203125 "/></g></g><g style="fill:#ffffff;fill-opacity:1;"><g transform="translate(293.947053, 100.379659)"><path style="stroke:none" d="M 31.109375 -1.9375 C 29.972656 -1.09375 28.570312 -0.457031 26.90625 -0.03125 C 25.25 0.382812 23.507812 0.59375 21.6875 0.59375 C 16.925781 0.59375 13.242188 -0.617188 10.640625 -3.046875 C 8.046875 -5.472656 6.75 -9.035156 6.75 -13.734375 L 6.75 -30.140625 L 0.59375 -30.140625 L 0.59375 -39.0625 L 6.75 -39.0625 L 6.75 -48.78125 L 18.34375 -48.78125 L 18.34375 -39.0625 L 28.296875 -39.0625 L 28.296875 -30.140625 L 18.34375 -30.140625 L 18.34375 -13.890625 C 18.34375 -12.203125 18.773438 -10.898438 19.640625 -9.984375 C 20.503906 -9.066406 21.726562 -8.609375 23.3125 -8.609375 C 25.144531 -8.609375 26.707031 -9.101562 28 -10.09375 Z M 31.109375 -1.9375 "/></g></g><g style="fill:#ffffff;fill-opacity:1;"><g transform="translate(326.245991, 100.379659)"><path style="stroke:none" d="M 24.359375 0.59375 C 20.148438 0.59375 16.375 -0.28125 13.03125 -2.03125 C 9.6875 -3.789062 7.070312 -6.226562 5.1875 -9.34375 C 3.3125 -12.46875 2.375 -16.007812 2.375 -19.96875 C 2.375 -23.925781 3.3125 -27.460938 5.1875 -30.578125 C 7.070312 -33.703125 9.6875 -36.144531 13.03125 -37.90625 C 16.375 -39.664062 20.148438 -40.546875 24.359375 -40.546875 C 28.566406 -40.546875 32.328125 -39.664062 35.640625 -37.90625 C 38.953125 -36.144531 41.546875 -33.703125 43.421875 -30.578125 C 45.304688 -27.460938 46.25 -23.925781 46.25 -19.96875 C 46.25 -16.007812 45.304688 -12.46875 43.421875 -9.34375 C 41.546875 -6.226562 38.953125 -3.789062 35.640625 -2.03125 C 32.328125 -0.28125 28.566406 0.59375 24.359375 0.59375 Z M 24.359375 -8.90625 C 27.328125 -8.90625 29.765625 -9.90625 31.671875 -11.90625 C 33.578125 -13.914062 34.53125 -16.601562 34.53125 -19.96875 C 34.53125 -23.332031 33.578125 -26.015625 31.671875 -28.015625 C 29.765625 -30.023438 27.328125 -31.03125 24.359375 -31.03125 C 21.390625 -31.03125 18.9375 -30.023438 17 -28.015625 C 15.070312 -26.015625 14.109375 -23.332031 14.109375 -19.96875 C 14.109375 -16.601562 15.070312 -13.914062 17 -11.90625 C 18.9375 -9.90625 21.390625 -8.90625 24.359375 -8.90625 Z M 24.359375 -8.90625 "/></g></g><g clip-rule="nonzero" clip-path="url(#1535a81aeb)"><g clip-rule="nonzero" clip-path="url(#5e616c4da7)"><path style=" stroke:none;fill-rule:nonzero;fill:#ffffff;fill-opacity:1;" d="M 57.292969 21.402344 L 110.042969 74.152344 L 56.882812 127.3125 L 4.132812 74.5625 Z M 57.292969 21.402344 "/></g></g><g clip-rule="nonzero" clip-path="url(#6bb6b98dd8)"><g clip-rule="nonzero" clip-path="url(#090ecc816a)"><g clip-rule="nonzero" clip-path="url(#60ed569706)"><path style="fill:none;stroke-width:7.890068;stroke-linecap:butt;stroke-linejoin:miter;stroke:#ffffff;stroke-opacity:1;stroke-miterlimit:4;" d="M 0.00160213 0.000310972 L 98.085931 0.000310972 L 98.085931 98.782698 L 0.00160213 98.782698 Z M 0.00160213 0.000310972 " transform="matrix(0.537205,0.537205,-0.537205,0.537205,57.296181,21.405222)"/></g></g></g></g></svg>