<svg xmlns="http://www.w3.org/2000/svg" xmlns:xlink="http://www.w3.org/1999/xlink" width="500" zoomAndPan="magnify" viewBox="0 0 375 374.999991" height="500" preserveAspectRatio="xMidYMid meet" version="1.2"><defs><clipPath id="ca3255cf04"><path d="M 24 51 L 286 51 L 286 313 L 24 313 Z M 24 51 "/></clipPath><clipPath id="706f716624"><path d="M 154.882812 51.886719 L 285.25 182.25 L 154.882812 312.613281 L 24.519531 182.25 Z M 154.882812 51.886719 "/></clipPath><clipPath id="7ea88b24b7"><path d="M 24 51 L 286 51 L 286 313 L 24 313 Z M 24 51 "/></clipPath><clipPath id="23f2c0edeb"><path d="M 154.882812 51.886719 L 285.816406 182.816406 L 154.882812 313.75 L 23.953125 182.816406 Z M 154.882812 51.886719 "/></clipPath><clipPath id="34ef93d58e"><path d="M 154.882812 51.886719 L 285.25 182.25 L 154.882812 312.613281 L 24.519531 182.25 Z M 154.882812 51.886719 "/></clipPath><clipPath id="f5b890b80c"><path d="M 24 182 L 155 182 L 155 313 L 24 313 Z M 24 182 "/></clipPath><clipPath id="373b20931d"><path d="M 89.75 182.25 L 154.933594 247.433594 L 89.75 312.613281 L 24.570312 247.433594 Z M 89.75 182.25 "/></clipPath><clipPath id="444de9b919"><path d="M 24 182 L 155 182 L 155 313 L 24 313 Z M 24 182 "/></clipPath><clipPath id="b3a4412508"><path d="M 89.75 182.25 L 155.21875 247.714844 L 89.75 313.183594 L 24.285156 247.714844 Z M 89.75 182.25 "/></clipPath><clipPath id="cba661c77d"><path d="M 89.75 182.25 L 154.933594 247.433594 L 89.75 312.613281 L 24.570312 247.433594 Z M 89.75 182.25 "/></clipPath><clipPath id="176a2fb9fa"><path d="M 89 51 L 351 51 L 351 313 L 89 313 Z M 89 51 "/></clipPath><clipPath id="b5c36f7ff6"><path d="M 220.117188 51.886719 L 350.480469 182.25 L 220.117188 312.613281 L 89.75 182.25 Z M 220.117188 51.886719 "/></clipPath><clipPath id="00f0307e8d"><path d="M 89 51 L 351 51 L 351 313 L 89 313 Z M 89 51 "/></clipPath><clipPath id="373c72110e"><path d="M 220.117188 51.886719 L 351.046875 182.816406 L 220.117188 313.75 L 89.183594 182.816406 Z M 220.117188 51.886719 "/></clipPath><clipPath id="36d0dd408f"><path d="M 220.117188 51.886719 L 350.480469 182.25 L 220.117188 312.613281 L 89.75 182.25 Z M 220.117188 51.886719 "/></clipPath><clipPath id="0e45b17233"><path d="M 41 190 L 148 190 L 148 297 L 41 297 Z M 41 190 "/></clipPath><clipPath id="8bbebef2c7"><path d="M 98.304688 190.804688 L 147.234375 239.734375 L 90.269531 296.699219 L 41.339844 247.769531 Z M 98.304688 190.804688 "/></clipPath></defs><g id="2b931de7a0"><g clip-rule="nonzero" clip-path="url(#ca3255cf04)"><g clip-rule="nonzero" clip-path="url(#706f716624)"><path style=" stroke:none;fill-rule:nonzero;fill:#e8e7e7;fill-opacity:1;" d="M 154.882812 51.886719 L 285.25 182.25 L 154.882812 312.613281 L 24.519531 182.25 Z M 154.882812 51.886719 "/></g></g><g clip-rule="nonzero" clip-path="url(#7ea88b24b7)"><g clip-rule="nonzero" clip-path="url(#23f2c0edeb)"><g clip-rule="nonzero" clip-path="url(#34ef93d58e)"><path style="fill:none;stroke-width:6.124219;stroke-linecap:butt;stroke-linejoin:miter;stroke:#ffffff;stroke-opacity:1;stroke-miterlimit:4;" d="M -0.000200799 0.00108286 L 107.531944 -0.00052818 L 107.530333 107.531617 L -0.000200799 107.531617 Z M -0.000200799 0.00108286 " transform="matrix(1.212337,1.212337,-1.212337,1.212337,154.884369,51.885649)"/></g></g></g><g clip-rule="nonzero" clip-path="url(#f5b890b80c)"><g clip-rule="nonzero" clip-path="url(#373b20931d)"><path style=" stroke:none;fill-rule:nonzero;fill:#efefef;fill-opacity:1;" d="M 89.75 182.25 L 154.933594 247.433594 L 89.75 312.613281 L 24.570312 247.433594 Z M 89.75 182.25 "/></g></g><g clip-rule="nonzero" clip-path="url(#444de9b919)"><g clip-rule="nonzero" clip-path="url(#b3a4412508)"><g clip-rule="nonzero" clip-path="url(#cba661c77d)"><path style="fill:none;stroke-width:6.124219;stroke-linecap:butt;stroke-linejoin:miter;stroke:#ffffff;stroke-opacity:1;stroke-miterlimit:4;" d="M -0.000394048 0.000380164 L 53.766484 0.000380164 L 53.764873 53.765647 L 0.00121699 53.765647 Z M -0.000394048 0.000380164 " transform="matrix(1.212337,1.212337,-1.212337,1.212337,89.750939,182.250017)"/></g></g></g><g clip-rule="nonzero" clip-path="url(#176a2fb9fa)"><g clip-rule="nonzero" clip-path="url(#b5c36f7ff6)"><path style=" stroke:none;fill-rule:nonzero;fill:#d9d9d9;fill-opacity:1;" d="M 220.117188 51.886719 L 350.480469 182.25 L 220.117188 312.613281 L 89.75 182.25 Z M 220.117188 51.886719 "/></g></g><g clip-rule="nonzero" clip-path="url(#00f0307e8d)"><g clip-rule="nonzero" clip-path="url(#373c72110e)"><g clip-rule="nonzero" clip-path="url(#36d0dd408f)"><path style="fill:none;stroke-width:6.124219;stroke-linecap:butt;stroke-linejoin:miter;stroke:#ffffff;stroke-opacity:1;stroke-miterlimit:4;" d="M 0.00123481 -0.000352747 L 107.531769 -0.000352747 L 107.531769 107.530181 L -0.000376231 107.531792 Z M 0.00123481 -0.000352747 " transform="matrix(1.212337,1.212337,-1.212337,1.212337,220.115263,51.885649)"/></g></g></g><g clip-rule="nonzero" clip-path="url(#0e45b17233)"><g clip-rule="nonzero" clip-path="url(#8bbebef2c7)"><path style=" stroke:none;fill-rule:nonzero;fill:#efefef;fill-opacity:1;" d="M 98.304688 190.804688 L 147.234375 239.734375 L 90.277344 296.691406 L 41.347656 247.761719 Z M 98.304688 190.804688 "/></g></g></g></svg>