<svg xmlns="http://www.w3.org/2000/svg" xmlns:xlink="http://www.w3.org/1999/xlink" width="500" zoomAndPan="magnify" viewBox="0 0 375 374.999991" height="500" preserveAspectRatio="xMidYMid meet" version="1.2"><defs><clipPath id="0c91f74d80"><path d="M 24 51 L 286 51 L 286 313 L 24 313 Z M 24 51 "/></clipPath><clipPath id="f02e3eb43d"><path d="M 154.882812 51.550781 L 285.246094 181.917969 L 154.882812 312.28125 L 24.519531 181.917969 Z M 154.882812 51.550781 "/></clipPath><clipPath id="013610859a"><path d="M 24 51 L 286 51 L 286 313 L 24 313 Z M 24 51 "/></clipPath><clipPath id="7320cac532"><path d="M 154.882812 51.550781 L 285.34375 182.015625 L 154.882812 312.476562 L 24.421875 182.015625 Z M 154.882812 51.550781 "/></clipPath><clipPath id="b6981fceef"><path d="M 154.882812 51.550781 L 285.246094 181.914062 L 154.882812 312.277344 L 24.519531 181.914062 Z M 154.882812 51.550781 "/></clipPath><clipPath id="f07a379db0"><path d="M 89 51 L 351 51 L 351 313 L 89 313 Z M 89 51 "/></clipPath><clipPath id="ba78ae0cc6"><path d="M 220.113281 51.550781 L 350.476562 181.917969 L 220.113281 312.28125 L 89.75 181.917969 Z M 220.113281 51.550781 "/></clipPath><clipPath id="9a888db8b1"><path d="M 89 51 L 351 51 L 351 313 L 89 313 Z M 89 51 "/></clipPath><clipPath id="da21c403b7"><path d="M 220.113281 51.550781 L 350.574219 182.015625 L 220.113281 312.476562 L 89.652344 182.015625 Z M 220.113281 51.550781 "/></clipPath><clipPath id="df17db7f77"><path d="M 220.113281 51.550781 L 350.476562 181.914062 L 220.113281 312.277344 L 89.75 181.914062 Z M 220.113281 51.550781 "/></clipPath><clipPath id="06fa6ab501"><path d="M 24 181 L 155 181 L 155 313 L 24 313 Z M 24 181 "/></clipPath><clipPath id="657fe130a2"><path d="M 89.75 181.917969 L 154.933594 247.097656 L 89.75 312.28125 L 24.566406 247.097656 Z M 89.75 181.917969 "/></clipPath><clipPath id="48863ba2f4"><path d="M 24 181 L 155 181 L 155 313 L 24 313 Z M 24 181 "/></clipPath><clipPath id="290bc1e5eb"><path d="M 89.75 181.917969 L 154.980469 247.148438 L 89.75 312.378906 L 24.519531 247.148438 Z M 89.75 181.917969 "/></clipPath><clipPath id="6be5625c48"><path d="M 89.75 181.917969 L 154.929688 247.097656 L 89.75 312.277344 L 24.570312 247.097656 Z M 89.75 181.917969 "/></clipPath><clipPath id="3e0f0cf1ff"><path d="M 28 56 L 282 56 L 282 309 L 28 309 Z M 28 56 "/></clipPath><clipPath id="33e16faa44"><path d="M 155.226562 56.386719 L 281.15625 182.3125 L 154.78125 308.6875 L 28.851562 182.757812 Z M 155.226562 56.386719 "/></clipPath><clipPath id="0b449df7fc"><path d="M 29 56 L 281 56 L 281 309 L 29 309 Z M 29 56 "/></clipPath><clipPath id="d5034700cc"><path d="M 155.226562 56.386719 L 280.914062 182.074219 L 154.695312 308.292969 L 29.007812 182.601562 Z M 155.226562 56.386719 "/></clipPath><clipPath id="bef06a7cf1"><path d="M 155.230469 56.386719 L 280.910156 182.070312 L 154.785156 308.195312 L 29.101562 182.515625 Z M 155.230469 56.386719 "/></clipPath></defs><g id="fa3c1f75c2"><g clip-rule="nonzero" clip-path="url(#0c91f74d80)"><g clip-rule="nonzero" clip-path="url(#f02e3eb43d)"><path style=" stroke:none;fill-rule:nonzero;fill:#ffffff;fill-opacity:1;" d="M 154.882812 51.550781 L 285.246094 181.917969 L 154.882812 312.28125 L 24.519531 181.917969 Z M 154.882812 51.550781 "/></g></g><g clip-rule="nonzero" clip-path="url(#013610859a)"><g clip-rule="nonzero" clip-path="url(#7320cac532)"><g clip-rule="nonzero" clip-path="url(#b6981fceef)"><path style="fill:none;stroke-width:8;stroke-linecap:butt;stroke-linejoin:miter;stroke:#d9d9d9;stroke-opacity:1;stroke-miterlimit:4;" d="M -0.00160164 -0.00189838 L 245.813774 -0.00189838 L 245.813774 245.813477 L -0.00160164 245.813477 Z M -0.00160164 -0.00189838 " transform="matrix(0.53033,0.53033,-0.53033,0.53033,154.882655,51.552637)"/></g></g></g><g clip-rule="nonzero" clip-path="url(#f07a379db0)"><g clip-rule="nonzero" clip-path="url(#ba78ae0cc6)"><path style=" stroke:none;fill-rule:nonzero;fill:#ffffff;fill-opacity:1;" d="M 220.113281 51.550781 L 350.476562 181.917969 L 220.113281 312.28125 L 89.75 181.917969 Z M 220.113281 51.550781 "/></g></g><g clip-rule="nonzero" clip-path="url(#9a888db8b1)"><g clip-rule="nonzero" clip-path="url(#da21c403b7)"><g clip-rule="nonzero" clip-path="url(#df17db7f77)"><path style="fill:none;stroke-width:8;stroke-linecap:butt;stroke-linejoin:miter;stroke:#d9d9d9;stroke-opacity:1;stroke-miterlimit:4;" d="M -0.00201625 -0.00148376 L 245.813359 -0.00148376 L 245.813359 245.813892 L -0.00201625 245.813892 Z M -0.00201625 -0.00148376 " transform="matrix(0.53033,0.53033,-0.53033,0.53033,220.113564,51.552637)"/></g></g></g><g clip-rule="nonzero" clip-path="url(#06fa6ab501)"><g clip-rule="nonzero" clip-path="url(#657fe130a2)"><path style=" stroke:none;fill-rule:nonzero;fill:#ffffff;fill-opacity:1;" d="M 89.75 181.917969 L 154.933594 247.097656 L 89.75 312.28125 L 24.566406 247.097656 Z M 89.75 181.917969 "/></g></g><g clip-rule="nonzero" clip-path="url(#48863ba2f4)"><g clip-rule="nonzero" clip-path="url(#290bc1e5eb)"><g clip-rule="nonzero" clip-path="url(#6be5625c48)"><path style="fill:none;stroke-width:8;stroke-linecap:butt;stroke-linejoin:miter;stroke:#d9d9d9;stroke-opacity:1;stroke-miterlimit:4;" d="M 0.00113937 0.00132078 L 122.905144 0.00132078 L 122.905144 122.905326 L 0.00113937 122.905326 Z M 0.00113937 0.00132078 " transform="matrix(0.53033,0.53033,-0.53033,0.53033,89.750096,181.916664)"/></g></g></g><g clip-rule="nonzero" clip-path="url(#3e0f0cf1ff)"><g clip-rule="nonzero" clip-path="url(#33e16faa44)"><path style=" stroke:none;fill-rule:nonzero;fill:#ffffff;fill-opacity:1;" d="M 155.226562 56.386719 L 281.15625 182.3125 L 154.734375 308.734375 L 28.804688 182.804688 Z M 155.226562 56.386719 "/></g></g><g clip-rule="nonzero" clip-path="url(#0b449df7fc)"><g clip-rule="nonzero" clip-path="url(#d5034700cc)"><g clip-rule="nonzero" clip-path="url(#bef06a7cf1)"><path style="fill:none;stroke-width:8;stroke-linecap:butt;stroke-linejoin:miter;stroke:#ffffff;stroke-opacity:1;stroke-miterlimit:4;" d="M -0.0000180457 -0.00262223 L 237.44067 0.00106766 L 237.44067 238.27936 L -0.0000180457 238.28305 Z M -0.0000180457 -0.00262223 " transform="matrix(0.529318,0.529318,-0.529318,0.529318,155.22909,56.388116)"/></g></g></g></g></svg>