<svg xmlns="http://www.w3.org/2000/svg" xmlns:xlink="http://www.w3.org/1999/xlink" width="500" zoomAndPan="magnify" viewBox="0 0 375 374.999991" height="500" preserveAspectRatio="xMidYMid meet" version="1.2"><defs><clipPath id="61c7cbd23b"><path d="M 24 51 L 286 51 L 286 313 L 24 313 Z M 24 51 "/></clipPath><clipPath id="8aa0356e1b"><path d="M 154.882812 51.550781 L 285.246094 181.917969 L 154.882812 312.28125 L 24.519531 181.917969 Z M 154.882812 51.550781 "/></clipPath><clipPath id="754d91f2ca"><path d="M 89 51 L 351 51 L 351 313 L 89 313 Z M 89 51 "/></clipPath><clipPath id="d0ba3fe467"><path d="M 220.113281 51.550781 L 350.476562 181.917969 L 220.113281 312.28125 L 89.75 181.917969 Z M 220.113281 51.550781 "/></clipPath><clipPath id="1e895d2c02"><path d="M 24 181 L 155 181 L 155 313 L 24 313 Z M 24 181 "/></clipPath><clipPath id="ecf88f85ca"><path d="M 89.738281 181.921875 L 154.921875 247.105469 L 89.738281 312.285156 L 24.554688 247.105469 Z M 89.738281 181.921875 "/></clipPath></defs><g id="a01631e6c0"><rect x="0" width="375" y="0" height="374.999991" style="fill:#ffffff;fill-opacity:1;stroke:none;"/><rect x="0" width="375" y="0" height="374.999991" style="fill:#ffffff;fill-opacity:1;stroke:none;"/><g clip-rule="nonzero" clip-path="url(#61c7cbd23b)"><g clip-rule="nonzero" clip-path="url(#8aa0356e1b)"><path style=" stroke:none;fill-rule:nonzero;fill:#feae6c;fill-opacity:1;" d="M 154.882812 51.550781 L 285.246094 181.917969 L 154.882812 312.28125 L 24.519531 181.917969 Z M 154.882812 51.550781 "/></g></g><g clip-rule="nonzero" clip-path="url(#754d91f2ca)"><g clip-rule="nonzero" clip-path="url(#d0ba3fe467)"><path style=" stroke:none;fill-rule:nonzero;fill:#011f51;fill-opacity:1;" d="M 220.113281 51.550781 L 350.476562 181.917969 L 220.113281 312.28125 L 89.75 181.917969 Z M 220.113281 51.550781 "/></g></g><g clip-rule="nonzero" clip-path="url(#1e895d2c02)"><g clip-rule="nonzero" clip-path="url(#ecf88f85ca)"><path style=" stroke:none;fill-rule:nonzero;fill:#006b8f;fill-opacity:1;" d="M 89.738281 181.921875 L 154.921875 247.105469 L 89.738281 312.285156 L 24.554688 247.105469 Z M 89.738281 181.921875 "/></g></g></g></svg>