<svg xmlns="http://www.w3.org/2000/svg" xmlns:xlink="http://www.w3.org/1999/xlink" width="500" zoomAndPan="magnify" viewBox="0 0 375 149.999998" height="200" preserveAspectRatio="xMidYMid meet" version="1.2"><defs><clipPath id="62e1e2f4a8"><path d="M 0 17 L 115 17 L 115 132 L 0 132 Z M 0 17 "/></clipPath><clipPath id="c5bc791f07"><path d="M 57.027344 17.222656 L 114.054688 74.25 L 57.027344 131.277344 L 0 74.25 Z M 57.027344 17.222656 "/></clipPath><clipPath id="64722680be"><path d="M 0 17 L 115 17 L 115 132 L 0 132 Z M 0 17 "/></clipPath><clipPath id="6cd9a09de9"><path d="M 57.027344 17.222656 L 114.304688 74.5 L 57.027344 131.773438 L -0.25 74.5 Z M 57.027344 17.222656 "/></clipPath><clipPath id="657e86b30d"><path d="M 57.027344 17.222656 L 114.054688 74.25 L 57.027344 131.277344 L 0 74.25 Z M 57.027344 17.222656 "/></clipPath><clipPath id="71d972db1f"><path d="M 0 74 L 58 74 L 58 132 L 0 132 Z M 0 74 "/></clipPath><clipPath id="b4d22ec595"><path d="M 28.535156 74.25 L 57.046875 102.761719 L 28.535156 131.277344 L 0.0195312 102.761719 Z M 28.535156 74.25 "/></clipPath><clipPath id="6b72bc3f78"><path d="M 0 74 L 58 74 L 58 132 L 0 132 Z M 0 74 "/></clipPath><clipPath id="b3c576149a"><path d="M 28.535156 74.25 L 57.171875 102.886719 L 28.535156 131.527344 L -0.101562 102.886719 Z M 28.535156 74.25 "/></clipPath><clipPath id="e937b2e2f1"><path d="M 28.535156 74.25 L 57.046875 102.761719 L 28.535156 131.277344 L 0.0195312 102.761719 Z M 28.535156 74.25 "/></clipPath><clipPath id="1558a684ad"><path d="M 28 17 L 143 17 L 143 132 L 28 132 Z M 28 17 "/></clipPath><clipPath id="9c6f45766f"><path d="M 85.5625 17.222656 L 142.589844 74.25 L 85.5625 131.277344 L 28.535156 74.25 Z M 85.5625 17.222656 "/></clipPath><clipPath id="70c750daa0"><path d="M 28 17 L 143 17 L 143 132 L 28 132 Z M 28 17 "/></clipPath><clipPath id="32df5b1f17"><path d="M 85.5625 17.222656 L 142.835938 74.5 L 85.5625 131.773438 L 28.285156 74.5 Z M 85.5625 17.222656 "/></clipPath><clipPath id="61208b85b9"><path d="M 85.5625 17.222656 L 142.589844 74.25 L 85.5625 131.277344 L 28.535156 74.25 Z M 85.5625 17.222656 "/></clipPath><clipPath id="a23b1a3518"><path d="M 7 77 L 54 77 L 54 125 L 7 125 Z M 7 77 "/></clipPath><clipPath id="a74aa46dfe"><path d="M 32.277344 77.992188 L 53.679688 99.394531 L 28.761719 124.316406 L 7.355469 102.910156 Z M 32.277344 77.992188 "/></clipPath></defs><g id="b34398549d"><g clip-rule="nonzero" clip-path="url(#62e1e2f4a8)"><g clip-rule="nonzero" clip-path="url(#c5bc791f07)"><path style=" stroke:none;fill-rule:nonzero;fill:#e8e7e7;fill-opacity:1;" d="M 57.027344 17.222656 L 114.054688 74.25 L 57.027344 131.277344 L 0 74.25 Z M 57.027344 17.222656 "/></g></g><g clip-rule="nonzero" clip-path="url(#64722680be)"><g clip-rule="nonzero" clip-path="url(#6cd9a09de9)"><g clip-rule="nonzero" clip-path="url(#657e86b30d)"><path style="fill:none;stroke-width:14;stroke-linecap:butt;stroke-linejoin:miter;stroke:#ffffff;stroke-opacity:1;stroke-miterlimit:4;" d="M 0.0000422437 -0.000438875 L 107.531839 -0.000438875 L 107.531839 107.531358 L 0.0000422437 107.531358 Z M 0.0000422437 -0.000438875 " transform="matrix(0.53033,0.53033,-0.53033,0.53033,57.027089,17.222867)"/></g></g></g><g style="fill:#ffffff;fill-opacity:1;"><g transform="translate(168.983564, 100.352489)"><path style="stroke:none" d="M 44.328125 -27.03125 C 47.296875 -26.082031 49.617188 -24.507812 51.296875 -22.3125 C 52.984375 -20.113281 53.828125 -17.40625 53.828125 -14.1875 C 53.828125 -9.625 52.054688 -6.117188 48.515625 -3.671875 C 44.984375 -1.222656 39.828125 0 33.046875 0 L 6.15625 0 L 6.15625 -51.96875 L 31.5625 -51.96875 C 37.894531 -51.96875 42.753906 -50.753906 46.140625 -48.328125 C 49.535156 -45.910156 51.234375 -42.625 51.234375 -38.46875 C 51.234375 -35.9375 50.625 -33.679688 49.40625 -31.703125 C 48.195312 -29.722656 46.503906 -28.164062 44.328125 -27.03125 Z M 18.109375 -42.921875 L 18.109375 -30.671875 L 30.078125 -30.671875 C 33.046875 -30.671875 35.296875 -31.1875 36.828125 -32.21875 C 38.359375 -33.257812 39.125 -34.796875 39.125 -36.828125 C 39.125 -38.859375 38.359375 -40.378906 36.828125 -41.390625 C 35.296875 -42.410156 33.046875 -42.921875 30.078125 -42.921875 Z M 32.15625 -9.0625 C 35.320312 -9.0625 37.707031 -9.578125 39.3125 -10.609375 C 40.925781 -11.648438 41.734375 -13.257812 41.734375 -15.4375 C 41.734375 -19.75 38.539062 -21.90625 32.15625 -21.90625 L 18.109375 -21.90625 L 18.109375 -9.0625 Z M 32.15625 -9.0625 "/></g></g><g style="fill:#ffffff;fill-opacity:1;"><g transform="translate(225.785134, 100.352489)"><path style="stroke:none" d="M 5.34375 -55.09375 L 16.921875 -55.09375 L 16.921875 0 L 5.34375 0 Z M 5.34375 -55.09375 "/></g></g><g style="fill:#ffffff;fill-opacity:1;"><g transform="translate(248.134515, 100.352489)"><path style="stroke:none" d="M 21.453125 -40.546875 C 27.640625 -40.546875 32.390625 -39.070312 35.703125 -36.125 C 39.023438 -33.175781 40.6875 -28.734375 40.6875 -22.796875 L 40.6875 0 L 29.84375 0 L 29.84375 -4.96875 C 27.664062 -1.257812 23.609375 0.59375 17.671875 0.59375 C 14.597656 0.59375 11.9375 0.0703125 9.6875 -0.96875 C 7.4375 -2.007812 5.71875 -3.441406 4.53125 -5.265625 C 3.34375 -7.097656 2.75 -9.179688 2.75 -11.515625 C 2.75 -15.222656 4.144531 -18.140625 6.9375 -20.265625 C 9.738281 -22.398438 14.0625 -23.46875 19.90625 -23.46875 L 29.109375 -23.46875 C 29.109375 -25.988281 28.335938 -27.925781 26.796875 -29.28125 C 25.265625 -30.644531 22.96875 -31.328125 19.90625 -31.328125 C 17.769531 -31.328125 15.675781 -30.992188 13.625 -30.328125 C 11.570312 -29.660156 9.828125 -28.757812 8.390625 -27.625 L 4.234375 -35.71875 C 6.410156 -37.25 9.019531 -38.4375 12.0625 -39.28125 C 15.101562 -40.125 18.234375 -40.546875 21.453125 -40.546875 Z M 20.5625 -7.203125 C 22.539062 -7.203125 24.296875 -7.660156 25.828125 -8.578125 C 27.367188 -9.492188 28.460938 -10.84375 29.109375 -12.625 L 29.109375 -16.703125 L 21.15625 -16.703125 C 16.40625 -16.703125 14.03125 -15.144531 14.03125 -12.03125 C 14.03125 -10.539062 14.609375 -9.363281 15.765625 -8.5 C 16.929688 -7.632812 18.53125 -7.203125 20.5625 -7.203125 Z M 20.5625 -7.203125 "/></g></g><g style="fill:#ffffff;fill-opacity:1;"><g transform="translate(293.94703, 100.352489)"><path style="stroke:none" d="M 31.109375 -1.9375 C 29.972656 -1.09375 28.570312 -0.457031 26.90625 -0.03125 C 25.25 0.382812 23.507812 0.59375 21.6875 0.59375 C 16.925781 0.59375 13.242188 -0.617188 10.640625 -3.046875 C 8.046875 -5.472656 6.75 -9.035156 6.75 -13.734375 L 6.75 -30.140625 L 0.59375 -30.140625 L 0.59375 -39.0625 L 6.75 -39.0625 L 6.75 -48.78125 L 18.34375 -48.78125 L 18.34375 -39.0625 L 28.296875 -39.0625 L 28.296875 -30.140625 L 18.34375 -30.140625 L 18.34375 -13.890625 C 18.34375 -12.203125 18.773438 -10.898438 19.640625 -9.984375 C 20.503906 -9.066406 21.726562 -8.609375 23.3125 -8.609375 C 25.144531 -8.609375 26.707031 -9.101562 28 -10.09375 Z M 31.109375 -1.9375 "/></g></g><g style="fill:#ffffff;fill-opacity:1;"><g transform="translate(326.245965, 100.352489)"><path style="stroke:none" d="M 24.359375 0.59375 C 20.148438 0.59375 16.375 -0.28125 13.03125 -2.03125 C 9.6875 -3.789062 7.070312 -6.226562 5.1875 -9.34375 C 3.3125 -12.46875 2.375 -16.007812 2.375 -19.96875 C 2.375 -23.925781 3.3125 -27.460938 5.1875 -30.578125 C 7.070312 -33.703125 9.6875 -36.144531 13.03125 -37.90625 C 16.375 -39.664062 20.148438 -40.546875 24.359375 -40.546875 C 28.566406 -40.546875 32.328125 -39.664062 35.640625 -37.90625 C 38.953125 -36.144531 41.546875 -33.703125 43.421875 -30.578125 C 45.304688 -27.460938 46.25 -23.925781 46.25 -19.96875 C 46.25 -16.007812 45.304688 -12.46875 43.421875 -9.34375 C 41.546875 -6.226562 38.953125 -3.789062 35.640625 -2.03125 C 32.328125 -0.28125 28.566406 0.59375 24.359375 0.59375 Z M 24.359375 -8.90625 C 27.328125 -8.90625 29.765625 -9.90625 31.671875 -11.90625 C 33.578125 -13.914062 34.53125 -16.601562 34.53125 -19.96875 C 34.53125 -23.332031 33.578125 -26.015625 31.671875 -28.015625 C 29.765625 -30.023438 27.328125 -31.03125 24.359375 -31.03125 C 21.390625 -31.03125 18.9375 -30.023438 17 -28.015625 C 15.070312 -26.015625 14.109375 -23.332031 14.109375 -19.96875 C 14.109375 -16.601562 15.070312 -13.914062 17 -11.90625 C 18.9375 -9.90625 21.390625 -8.90625 24.359375 -8.90625 Z M 24.359375 -8.90625 "/></g></g><g clip-rule="nonzero" clip-path="url(#71d972db1f)"><g clip-rule="nonzero" clip-path="url(#b4d22ec595)"><path style=" stroke:none;fill-rule:nonzero;fill:#efefef;fill-opacity:1;" d="M 28.535156 74.25 L 57.046875 102.761719 L 28.535156 131.277344 L 0.0195312 102.761719 Z M 28.535156 74.25 "/></g></g><g clip-rule="nonzero" clip-path="url(#6b72bc3f78)"><g clip-rule="nonzero" clip-path="url(#b3c576149a)"><g clip-rule="nonzero" clip-path="url(#e937b2e2f1)"><path style="fill:none;stroke-width:14;stroke-linecap:butt;stroke-linejoin:miter;stroke:#ffffff;stroke-opacity:1;stroke-miterlimit:4;" d="M 0.000280807 -0.000303564 L 53.762496 -0.000303564 L 53.766179 53.765595 L -0.00340204 53.765595 Z M 0.000280807 -0.000303564 " transform="matrix(0.53033,0.53033,-0.53033,0.53033,28.534846,74.250012)"/></g></g></g><g clip-rule="nonzero" clip-path="url(#1558a684ad)"><g clip-rule="nonzero" clip-path="url(#9c6f45766f)"><path style=" stroke:none;fill-rule:nonzero;fill:#d9d9d9;fill-opacity:1;" d="M 85.5625 17.222656 L 142.589844 74.25 L 85.5625 131.277344 L 28.535156 74.25 Z M 85.5625 17.222656 "/></g></g><g clip-rule="nonzero" clip-path="url(#70c750daa0)"><g clip-rule="nonzero" clip-path="url(#32df5b1f17)"><g clip-rule="nonzero" clip-path="url(#61208b85b9)"><path style="fill:none;stroke-width:14;stroke-linecap:butt;stroke-linejoin:miter;stroke:#ffffff;stroke-opacity:1;stroke-miterlimit:4;" d="M 0.000302756 -0.000699387 L 107.532099 -0.000699387 L 107.532099 107.531097 L 0.000302756 107.531097 Z M 0.000302756 -0.000699387 " transform="matrix(0.53033,0.53033,-0.53033,0.53033,85.561969,17.222867)"/></g></g></g><g clip-rule="nonzero" clip-path="url(#a23b1a3518)"><g clip-rule="nonzero" clip-path="url(#a74aa46dfe)"><path style=" stroke:none;fill-rule:nonzero;fill:#efefef;fill-opacity:1;" d="M 32.277344 77.992188 L 53.679688 99.394531 L 28.765625 124.3125 L 7.359375 102.90625 Z M 32.277344 77.992188 "/></g></g></g></svg>