<svg xmlns="http://www.w3.org/2000/svg" xmlns:xlink="http://www.w3.org/1999/xlink" width="500" zoomAndPan="magnify" viewBox="0 0 375 374.999991" height="500" preserveAspectRatio="xMidYMid meet" version="1.2"><defs><clipPath id="05fc1c3326"><path d="M 24 51 L 286 51 L 286 313 L 24 313 Z M 24 51 "/></clipPath><clipPath id="cc83a7cbbf"><path d="M 154.882812 51.550781 L 285.246094 181.917969 L 154.882812 312.28125 L 24.519531 181.917969 Z M 154.882812 51.550781 "/></clipPath><clipPath id="e07e3315b1"><path d="M 89 51 L 351 51 L 351 313 L 89 313 Z M 89 51 "/></clipPath><clipPath id="90c0322559"><path d="M 220.113281 51.550781 L 350.476562 181.917969 L 220.113281 312.28125 L 89.75 181.917969 Z M 220.113281 51.550781 "/></clipPath><clipPath id="20e4f66515"><path d="M 24 181 L 155 181 L 155 313 L 24 313 Z M 24 181 "/></clipPath><clipPath id="fd715e3aa3"><path d="M 89.738281 181.921875 L 154.921875 247.105469 L 89.738281 312.285156 L 24.554688 247.105469 Z M 89.738281 181.921875 "/></clipPath></defs><g id="50b5ac82ce"><g clip-rule="nonzero" clip-path="url(#05fc1c3326)"><g clip-rule="nonzero" clip-path="url(#cc83a7cbbf)"><path style=" stroke:none;fill-rule:nonzero;fill:#feae6c;fill-opacity:1;" d="M 154.882812 51.550781 L 285.246094 181.917969 L 154.882812 312.28125 L 24.519531 181.917969 Z M 154.882812 51.550781 "/></g></g><g clip-rule="nonzero" clip-path="url(#e07e3315b1)"><g clip-rule="nonzero" clip-path="url(#90c0322559)"><path style=" stroke:none;fill-rule:nonzero;fill:#011f51;fill-opacity:1;" d="M 220.113281 51.550781 L 350.476562 181.917969 L 220.113281 312.28125 L 89.75 181.917969 Z M 220.113281 51.550781 "/></g></g><g clip-rule="nonzero" clip-path="url(#20e4f66515)"><g clip-rule="nonzero" clip-path="url(#fd715e3aa3)"><path style=" stroke:none;fill-rule:nonzero;fill:#006b8f;fill-opacity:1;" d="M 89.738281 181.921875 L 154.921875 247.105469 L 89.738281 312.285156 L 24.554688 247.105469 Z M 89.738281 181.921875 "/></g></g></g></svg>