<svg xmlns="http://www.w3.org/2000/svg" xmlns:xlink="http://www.w3.org/1999/xlink" width="500" zoomAndPan="magnify" viewBox="0 0 375 149.999998" height="200" preserveAspectRatio="xMidYMid meet" version="1.2"><defs><clipPath id="0864811241"><path d="M 0 17 L 114 17 L 114 132 L 0 132 Z M 0 17 "/></clipPath><clipPath id="fbf99937c7"><path d="M 56.699219 17.78125 L 113.40625 74.484375 L 56.699219 131.191406 L -0.00390625 74.484375 Z M 56.699219 17.78125 "/></clipPath><clipPath id="a5c79af7d7"><path d="M 28 17 L 142 17 L 142 132 L 28 132 Z M 28 17 "/></clipPath><clipPath id="6275c77e01"><path d="M 85.074219 17.78125 L 141.78125 74.484375 L 85.074219 131.191406 L 28.367188 74.484375 Z M 85.074219 17.78125 "/></clipPath><clipPath id="b99cf2b5e7"><path d="M 0 74 L 57 74 L 57 132 L 0 132 Z M 0 74 "/></clipPath><clipPath id="e5dc0717a7"><path d="M 28.367188 74.484375 L 56.722656 102.839844 L 28.367188 131.191406 L 0.015625 102.839844 Z M 28.367188 74.484375 "/></clipPath></defs><g id="98900457f1"><g clip-rule="nonzero" clip-path="url(#0864811241)"><g clip-rule="nonzero" clip-path="url(#fbf99937c7)"><path style=" stroke:none;fill-rule:nonzero;fill:#feae6c;fill-opacity:1;" d="M 56.699219 17.78125 L 113.40625 74.484375 L 56.699219 131.191406 L -0.00390625 74.484375 Z M 56.699219 17.78125 "/></g></g><g clip-rule="nonzero" clip-path="url(#a5c79af7d7)"><g clip-rule="nonzero" clip-path="url(#6275c77e01)"><path style=" stroke:none;fill-rule:nonzero;fill:#011f51;fill-opacity:1;" d="M 85.074219 17.78125 L 141.78125 74.484375 L 85.074219 131.191406 L 28.367188 74.484375 Z M 85.074219 17.78125 "/></g></g><g clip-rule="nonzero" clip-path="url(#b99cf2b5e7)"><g clip-rule="nonzero" clip-path="url(#e5dc0717a7)"><path style=" stroke:none;fill-rule:nonzero;fill:#006b8f;fill-opacity:1;" d="M 28.367188 74.484375 L 56.722656 102.839844 L 28.367188 131.191406 L 0.015625 102.839844 Z M 28.367188 74.484375 "/></g></g><g style="fill:#000000;fill-opacity:1;"><g transform="translate(168.032746, 100.439327)"><path style="stroke:none" d="M 44.078125 -26.875 C 47.035156 -25.9375 49.347656 -24.375 51.015625 -22.1875 C 52.691406 -20 53.53125 -17.304688 53.53125 -14.109375 C 53.53125 -9.578125 51.769531 -6.09375 48.25 -3.65625 C 44.738281 -1.21875 39.609375 0 32.859375 0 L 6.125 0 L 6.125 -51.6875 L 31.390625 -51.6875 C 37.679688 -51.6875 42.515625 -50.476562 45.890625 -48.0625 C 49.265625 -45.65625 50.953125 -42.382812 50.953125 -38.25 C 50.953125 -35.738281 50.347656 -33.5 49.140625 -31.53125 C 47.929688 -29.5625 46.242188 -28.007812 44.078125 -26.875 Z M 18.015625 -42.6875 L 18.015625 -30.5 L 29.90625 -30.5 C 32.863281 -30.5 35.101562 -31.015625 36.625 -32.046875 C 38.15625 -33.078125 38.921875 -34.601562 38.921875 -36.625 C 38.921875 -38.644531 38.15625 -40.160156 36.625 -41.171875 C 35.101562 -42.179688 32.863281 -42.6875 29.90625 -42.6875 Z M 31.96875 -9.015625 C 35.125 -9.015625 37.5 -9.53125 39.09375 -10.5625 C 40.695312 -11.59375 41.5 -13.191406 41.5 -15.359375 C 41.5 -19.640625 38.320312 -21.78125 31.96875 -21.78125 L 18.015625 -21.78125 L 18.015625 -9.015625 Z M 31.96875 -9.015625 "/></g></g><g style="fill:#000000;fill-opacity:1;"><g transform="translate(224.514711, 100.439327)"><path style="stroke:none" d="M 5.3125 -54.796875 L 16.84375 -54.796875 L 16.84375 0 L 5.3125 0 Z M 5.3125 -54.796875 "/></g></g><g style="fill:#000000;fill-opacity:1;"><g transform="translate(246.73834, 100.439327)"><path style="stroke:none" d="M 21.34375 -40.3125 C 27.5 -40.3125 32.222656 -38.847656 35.515625 -35.921875 C 38.816406 -32.992188 40.46875 -28.578125 40.46875 -22.671875 L 40.46875 0 L 29.6875 0 L 29.6875 -4.953125 C 27.519531 -1.253906 23.484375 0.59375 17.578125 0.59375 C 14.523438 0.59375 11.878906 0.078125 9.640625 -0.953125 C 7.398438 -1.992188 5.6875 -3.421875 4.5 -5.234375 C 3.320312 -7.054688 2.734375 -9.128906 2.734375 -11.453125 C 2.734375 -15.140625 4.125 -18.039062 6.90625 -20.15625 C 9.6875 -22.269531 13.984375 -23.328125 19.796875 -23.328125 L 28.953125 -23.328125 C 28.953125 -25.835938 28.1875 -27.769531 26.65625 -29.125 C 25.132812 -30.476562 22.847656 -31.15625 19.796875 -31.15625 C 17.671875 -31.15625 15.585938 -30.820312 13.546875 -30.15625 C 11.503906 -29.5 9.769531 -28.601562 8.34375 -27.46875 L 4.203125 -35.515625 C 6.367188 -37.046875 8.96875 -38.226562 12 -39.0625 C 15.03125 -39.894531 18.144531 -40.3125 21.34375 -40.3125 Z M 20.453125 -7.15625 C 22.421875 -7.15625 24.164062 -7.609375 25.6875 -8.515625 C 27.21875 -9.429688 28.304688 -10.773438 28.953125 -12.546875 L 28.953125 -16.609375 L 21.046875 -16.609375 C 16.316406 -16.609375 13.953125 -15.0625 13.953125 -11.96875 C 13.953125 -10.488281 14.53125 -9.316406 15.6875 -8.453125 C 16.84375 -7.585938 18.429688 -7.15625 20.453125 -7.15625 Z M 20.453125 -7.15625 "/></g></g><g style="fill:#000000;fill-opacity:1;"><g transform="translate(292.293081, 100.439327)"><path style="stroke:none" d="M 30.9375 -1.921875 C 29.800781 -1.085938 28.410156 -0.457031 26.765625 -0.03125 C 25.117188 0.382812 23.382812 0.59375 21.5625 0.59375 C 16.832031 0.59375 13.175781 -0.609375 10.59375 -3.015625 C 8.007812 -5.429688 6.71875 -8.976562 6.71875 -13.65625 L 6.71875 -29.984375 L 0.59375 -29.984375 L 0.59375 -38.84375 L 6.71875 -38.84375 L 6.71875 -48.515625 L 18.234375 -48.515625 L 18.234375 -38.84375 L 28.140625 -38.84375 L 28.140625 -29.984375 L 18.234375 -29.984375 L 18.234375 -13.8125 C 18.234375 -12.132812 18.664062 -10.835938 19.53125 -9.921875 C 20.394531 -9.015625 21.613281 -8.5625 23.1875 -8.5625 C 25.007812 -8.5625 26.5625 -9.054688 27.84375 -10.046875 Z M 30.9375 -1.921875 "/></g></g><g style="fill:#000000;fill-opacity:1;"><g transform="translate(324.41028, 100.439327)"><path style="stroke:none" d="M 24.21875 0.59375 C 20.03125 0.59375 16.273438 -0.28125 12.953125 -2.03125 C 9.628906 -3.78125 7.03125 -6.203125 5.15625 -9.296875 C 3.289062 -12.398438 2.359375 -15.921875 2.359375 -19.859375 C 2.359375 -23.796875 3.289062 -27.316406 5.15625 -30.421875 C 7.03125 -33.523438 9.628906 -35.945312 12.953125 -37.6875 C 16.273438 -39.4375 20.03125 -40.3125 24.21875 -40.3125 C 28.40625 -40.3125 32.144531 -39.4375 35.4375 -37.6875 C 38.738281 -35.945312 41.320312 -33.523438 43.1875 -30.421875 C 45.0625 -27.316406 46 -23.796875 46 -19.859375 C 46 -15.921875 45.0625 -12.398438 43.1875 -9.296875 C 41.320312 -6.203125 38.738281 -3.78125 35.4375 -2.03125 C 32.144531 -0.28125 28.40625 0.59375 24.21875 0.59375 Z M 24.21875 -8.859375 C 27.175781 -8.859375 29.601562 -9.851562 31.5 -11.84375 C 33.394531 -13.84375 34.34375 -16.515625 34.34375 -19.859375 C 34.34375 -23.210938 33.394531 -25.882812 31.5 -27.875 C 29.601562 -29.863281 27.175781 -30.859375 24.21875 -30.859375 C 21.269531 -30.859375 18.832031 -29.863281 16.90625 -27.875 C 14.988281 -25.882812 14.03125 -23.210938 14.03125 -19.859375 C 14.03125 -16.515625 14.988281 -13.84375 16.90625 -11.84375 C 18.832031 -9.851562 21.269531 -8.859375 24.21875 -8.859375 Z M 24.21875 -8.859375 "/></g></g></g></svg>