<svg xmlns="http://www.w3.org/2000/svg" xmlns:xlink="http://www.w3.org/1999/xlink" width="500" zoomAndPan="magnify" viewBox="0 0 375 374.999991" height="500" preserveAspectRatio="xMidYMid meet" version="1.2"><defs><clipPath id="32bf60f30e"><path d="M 5 120 L 118 120 L 118 233 L 5 233 Z M 5 120 "/></clipPath><clipPath id="591408df47"><path d="M 61.394531 120.277344 L 117.636719 176.519531 L 61.394531 232.761719 L 5.152344 176.519531 Z M 61.394531 120.277344 "/></clipPath><clipPath id="69f61ea061"><path d="M 5 120 L 118 120 L 118 233 L 5 233 Z M 5 120 "/></clipPath><clipPath id="c34cce8dbd"><path d="M 61.394531 120.277344 L 117.609375 176.492188 L 61.394531 232.707031 L 5.179688 176.492188 Z M 61.394531 120.277344 "/></clipPath><clipPath id="4fa3345779"><path d="M 61.394531 120.277344 L 117.609375 176.492188 L 61.394531 232.707031 L 5.179688 176.492188 Z M 61.394531 120.277344 "/></clipPath><clipPath id="4d1291e18f"><path d="M 33 120 L 146 120 L 146 233 L 33 233 Z M 33 120 "/></clipPath><clipPath id="32490cfaf4"><path d="M 89.535156 120.277344 L 145.78125 176.519531 L 89.535156 232.761719 L 33.292969 176.519531 Z M 89.535156 120.277344 "/></clipPath><clipPath id="a92e9e17ee"><path d="M 33 120 L 146 120 L 146 233 L 33 233 Z M 33 120 "/></clipPath><clipPath id="c6116939c3"><path d="M 89.535156 120.277344 L 145.75 176.492188 L 89.535156 232.707031 L 33.320312 176.492188 Z M 89.535156 120.277344 "/></clipPath><clipPath id="eb18478608"><path d="M 89.535156 120.277344 L 145.75 176.492188 L 89.535156 232.707031 L 33.320312 176.492188 Z M 89.535156 120.277344 "/></clipPath><clipPath id="0ebe9d630e"><path d="M 5 176 L 62 176 L 62 233 L 5 233 Z M 5 176 "/></clipPath><clipPath id="25c4464405"><path d="M 33.292969 176.519531 L 61.414062 204.640625 L 33.292969 232.765625 L 5.167969 204.640625 Z M 33.292969 176.519531 "/></clipPath><clipPath id="4131508b18"><path d="M 5 176 L 62 176 L 62 233 L 5 233 Z M 5 176 "/></clipPath><clipPath id="116f81e1be"><path d="M 33.292969 176.519531 L 61.398438 204.628906 L 33.292969 232.734375 L 5.183594 204.628906 Z M 33.292969 176.519531 "/></clipPath><clipPath id="9ad08441f8"><path d="M 33.292969 176.519531 L 61.398438 204.628906 L 33.292969 232.734375 L 5.183594 204.628906 Z M 33.292969 176.519531 "/></clipPath><clipPath id="a329a9714f"><path d="M 9 124 L 114 124 L 114 229 L 9 229 Z M 9 124 "/></clipPath><clipPath id="d629cfb3c0"><path d="M 61.660156 124.371094 L 113.683594 176.394531 L 61.289062 228.789062 L 9.265625 176.765625 Z M 61.660156 124.371094 "/></clipPath><clipPath id="19b8a7bebe"><path d="M 9 124 L 114 124 L 114 229 L 9 229 Z M 9 124 "/></clipPath><clipPath id="4983b5f780"><path d="M 61.660156 124.371094 L 113.632812 176.34375 L 61.128906 228.847656 L 9.15625 176.875 Z M 61.660156 124.371094 "/></clipPath><clipPath id="f8585b48ce"><path d="M 61.660156 124.375 L 113.628906 176.339844 L 61.292969 228.679688 L 9.324219 176.710938 Z M 61.660156 124.375 "/></clipPath></defs><g id="a9c699ee5e"><g clip-rule="nonzero" clip-path="url(#32bf60f30e)"><g clip-rule="nonzero" clip-path="url(#591408df47)"><path style=" stroke:none;fill-rule:nonzero;fill:#ffffff;fill-opacity:1;" d="M 61.394531 120.277344 L 117.636719 176.519531 L 61.394531 232.761719 L 5.152344 176.519531 Z M 61.394531 120.277344 "/></g></g><g clip-rule="nonzero" clip-path="url(#69f61ea061)"><g clip-rule="nonzero" clip-path="url(#c34cce8dbd)"><g clip-rule="nonzero" clip-path="url(#4fa3345779)"><path style="fill:none;stroke-width:8;stroke-linecap:butt;stroke-linejoin:miter;stroke:#d9d9d9;stroke-opacity:1;stroke-miterlimit:4;" d="M 0.00138242 0.000311705 L 106.047983 0.000311705 L 106.047983 106.046912 L 0.00138242 106.046912 Z M 0.00138242 0.000311705 " transform="matrix(0.530096,0.530096,-0.530096,0.530096,61.393964,120.276446)"/></g></g></g><g clip-rule="nonzero" clip-path="url(#4d1291e18f)"><g clip-rule="nonzero" clip-path="url(#32490cfaf4)"><path style=" stroke:none;fill-rule:nonzero;fill:#ffffff;fill-opacity:1;" d="M 89.535156 120.277344 L 145.78125 176.519531 L 89.535156 232.761719 L 33.292969 176.519531 Z M 89.535156 120.277344 "/></g></g><g clip-rule="nonzero" clip-path="url(#a92e9e17ee)"><g clip-rule="nonzero" clip-path="url(#c6116939c3)"><g clip-rule="nonzero" clip-path="url(#eb18478608)"><path style="fill:none;stroke-width:8;stroke-linecap:butt;stroke-linejoin:miter;stroke:#d9d9d9;stroke-opacity:1;stroke-miterlimit:4;" d="M -0.000640943 0.00233507 L 106.04596 0.00233507 L 106.04596 106.048936 L -0.000640943 106.048936 Z M -0.000640943 0.00233507 " transform="matrix(0.530096,0.530096,-0.530096,0.530096,89.536734,120.276446)"/></g></g></g><g clip-rule="nonzero" clip-path="url(#0ebe9d630e)"><g clip-rule="nonzero" clip-path="url(#25c4464405)"><path style=" stroke:none;fill-rule:nonzero;fill:#ffffff;fill-opacity:1;" d="M 33.292969 176.519531 L 61.414062 204.640625 L 33.292969 232.765625 L 5.167969 204.640625 Z M 33.292969 176.519531 "/></g></g><g clip-rule="nonzero" clip-path="url(#4131508b18)"><g clip-rule="nonzero" clip-path="url(#116f81e1be)"><g clip-rule="nonzero" clip-path="url(#9ad08441f8)"><path style="fill:none;stroke-width:8;stroke-linecap:butt;stroke-linejoin:miter;stroke:#d9d9d9;stroke-opacity:1;stroke-miterlimit:4;" d="M 0.000256593 -0.00236375 L 53.015751 0.00132019 L 53.015751 53.013131 L 0.000256593 53.016815 Z M 0.000256593 -0.00236375 " transform="matrix(0.530174,0.530174,-0.530174,0.530174,33.29158,176.520648)"/></g></g></g><g style="fill:#ffffff;fill-opacity:1;"><g transform="translate(171.81452, 202.262713)"><path style="stroke:none" d="M 43.71875 -26.65625 C 46.644531 -25.726562 48.9375 -24.175781 50.59375 -22 C 52.257812 -19.832031 53.09375 -17.160156 53.09375 -13.984375 C 53.09375 -9.492188 51.347656 -6.039062 47.859375 -3.625 C 44.367188 -1.207031 39.28125 0 32.59375 0 L 6.078125 0 L 6.078125 -51.265625 L 31.125 -51.265625 C 37.375 -51.265625 42.171875 -50.066406 45.515625 -47.671875 C 48.859375 -45.285156 50.53125 -42.039062 50.53125 -37.9375 C 50.53125 -35.445312 49.929688 -33.222656 48.734375 -31.265625 C 47.535156 -29.316406 45.863281 -27.78125 43.71875 -26.65625 Z M 17.875 -42.328125 L 17.875 -30.25 L 29.65625 -30.25 C 32.582031 -30.25 34.800781 -30.757812 36.3125 -31.78125 C 37.832031 -32.8125 38.59375 -34.328125 38.59375 -36.328125 C 38.59375 -38.328125 37.832031 -39.828125 36.3125 -40.828125 C 34.800781 -41.828125 32.582031 -42.328125 29.65625 -42.328125 Z M 31.703125 -8.9375 C 34.828125 -8.9375 37.179688 -9.445312 38.765625 -10.46875 C 40.359375 -11.5 41.15625 -13.085938 41.15625 -15.234375 C 41.15625 -19.484375 38.003906 -21.609375 31.703125 -21.609375 L 17.875 -21.609375 L 17.875 -8.9375 Z M 31.703125 -8.9375 "/></g></g><g style="fill:#ffffff;fill-opacity:1;"><g transform="translate(227.835555, 202.262713)"><path style="stroke:none" d="M 5.265625 -54.34375 L 16.703125 -54.34375 L 16.703125 0 L 5.265625 0 Z M 5.265625 -54.34375 "/></g></g><g style="fill:#ffffff;fill-opacity:1;"><g transform="translate(249.877824, 202.262713)"><path style="stroke:none" d="M 21.171875 -39.984375 C 27.265625 -39.984375 31.945312 -38.53125 35.21875 -35.625 C 38.488281 -32.71875 40.125 -28.335938 40.125 -22.484375 L 40.125 0 L 29.4375 0 L 29.4375 -4.90625 C 27.289062 -1.25 23.289062 0.578125 17.4375 0.578125 C 14.40625 0.578125 11.773438 0.0664062 9.546875 -0.953125 C 7.328125 -1.972656 5.628906 -3.382812 4.453125 -5.1875 C 3.285156 -7 2.703125 -9.050781 2.703125 -11.34375 C 2.703125 -15.007812 4.082031 -17.890625 6.84375 -19.984375 C 9.601562 -22.085938 13.863281 -23.140625 19.625 -23.140625 L 28.703125 -23.140625 C 28.703125 -25.628906 27.945312 -27.546875 26.4375 -28.890625 C 24.925781 -30.234375 22.65625 -30.90625 19.625 -30.90625 C 17.53125 -30.90625 15.46875 -30.570312 13.4375 -29.90625 C 11.414062 -29.25 9.695312 -28.363281 8.28125 -27.25 L 4.171875 -35.21875 C 6.316406 -36.738281 8.890625 -37.910156 11.890625 -38.734375 C 14.898438 -39.566406 17.992188 -39.984375 21.171875 -39.984375 Z M 20.28125 -7.109375 C 22.238281 -7.109375 23.972656 -7.554688 25.484375 -8.453125 C 26.992188 -9.359375 28.066406 -10.691406 28.703125 -12.453125 L 28.703125 -16.484375 L 20.875 -16.484375 C 16.1875 -16.484375 13.84375 -14.941406 13.84375 -11.859375 C 13.84375 -10.398438 14.414062 -9.242188 15.5625 -8.390625 C 16.707031 -7.535156 18.28125 -7.109375 20.28125 -7.109375 Z M 20.28125 -7.109375 "/></g></g><g style="fill:#ffffff;fill-opacity:1;"><g transform="translate(295.060809, 202.262713)"><path style="stroke:none" d="M 30.6875 -1.90625 C 29.5625 -1.070312 28.179688 -0.445312 26.546875 -0.03125 C 24.910156 0.375 23.191406 0.578125 21.390625 0.578125 C 16.703125 0.578125 13.078125 -0.613281 10.515625 -3 C 7.953125 -5.394531 6.671875 -8.910156 6.671875 -13.546875 L 6.671875 -29.734375 L 0.578125 -29.734375 L 0.578125 -38.515625 L 6.671875 -38.515625 L 6.671875 -48.109375 L 18.09375 -48.109375 L 18.09375 -38.515625 L 27.90625 -38.515625 L 27.90625 -29.734375 L 18.09375 -29.734375 L 18.09375 -13.6875 C 18.09375 -12.03125 18.519531 -10.75 19.375 -9.84375 C 20.226562 -8.945312 21.4375 -8.5 23 -8.5 C 24.800781 -8.5 26.335938 -8.984375 27.609375 -9.953125 Z M 30.6875 -1.90625 "/></g></g><g style="fill:#ffffff;fill-opacity:1;"><g transform="translate(326.91591, 202.262713)"><path style="stroke:none" d="M 24.015625 0.578125 C 19.867188 0.578125 16.144531 -0.285156 12.84375 -2.015625 C 9.550781 -3.742188 6.976562 -6.144531 5.125 -9.21875 C 3.269531 -12.300781 2.34375 -15.796875 2.34375 -19.703125 C 2.34375 -23.609375 3.269531 -27.097656 5.125 -30.171875 C 6.976562 -33.242188 9.550781 -35.644531 12.84375 -37.375 C 16.144531 -39.113281 19.867188 -39.984375 24.015625 -39.984375 C 28.171875 -39.984375 31.882812 -39.113281 35.15625 -37.375 C 38.425781 -35.644531 40.988281 -33.242188 42.84375 -30.171875 C 44.695312 -27.097656 45.625 -23.609375 45.625 -19.703125 C 45.625 -15.796875 44.695312 -12.300781 42.84375 -9.21875 C 40.988281 -6.144531 38.425781 -3.742188 35.15625 -2.015625 C 31.882812 -0.285156 28.171875 0.578125 24.015625 0.578125 Z M 24.015625 -8.78125 C 26.953125 -8.78125 29.359375 -9.769531 31.234375 -11.75 C 33.109375 -13.726562 34.046875 -16.378906 34.046875 -19.703125 C 34.046875 -23.023438 33.109375 -25.671875 31.234375 -27.640625 C 29.359375 -29.617188 26.953125 -30.609375 24.015625 -30.609375 C 21.085938 -30.609375 18.671875 -29.617188 16.765625 -27.640625 C 14.867188 -25.671875 13.921875 -23.023438 13.921875 -19.703125 C 13.921875 -16.378906 14.867188 -13.726562 16.765625 -11.75 C 18.671875 -9.769531 21.085938 -8.78125 24.015625 -8.78125 Z M 24.015625 -8.78125 "/></g></g><g clip-rule="nonzero" clip-path="url(#a329a9714f)"><g clip-rule="nonzero" clip-path="url(#d629cfb3c0)"><path style=" stroke:none;fill-rule:nonzero;fill:#ffffff;fill-opacity:1;" d="M 61.660156 124.371094 L 113.683594 176.394531 L 61.253906 228.828125 L 9.230469 176.800781 Z M 61.660156 124.371094 "/></g></g><g clip-rule="nonzero" clip-path="url(#19b8a7bebe)"><g clip-rule="nonzero" clip-path="url(#4983b5f780)"><g clip-rule="nonzero" clip-path="url(#f8585b48ce)"><path style="fill:none;stroke-width:8;stroke-linecap:butt;stroke-linejoin:miter;stroke:#ffffff;stroke-opacity:1;stroke-miterlimit:4;" d="M -0.000213688 0.00304061 L 98.083066 -0.000645764 L 98.086752 98.783045 L -0.000213688 98.783045 Z M -0.000213688 0.00304061 " transform="matrix(0.529823,0.529823,-0.529823,0.529823,61.66188,124.373502)"/></g></g></g></g></svg>